# xmcd
#
# Track frame offsets: 
#        150
#        25682
#        41312
#        57177
#        79850
#        99267
#        111085
#        133255
#        161775
#        184507
#        227165
#        241457
#        256260
#        282887
#        305575
#        330842
#
# Disc length: 4692 seconds
#
# Revision: 0
# Processed by: cddbd v1.5.1PL2 Copyright (c) Steve Scherf et al.
# Submitted via: ExactAudioCopy v0.95b3
#
DISCID=cb125210
DTITLE=ASPM - V klubu na Petynce 1990
DYEAR=1900
DGENRE=Blues
TTITLE0=Vìøím v nás
TTITLE1=Blues pro barmanku "U Brázdù"
TTITLE2=Tonda B.
TTITLE3=Aceton Blues
TTITLE4=Jak 'sem vyrost'
TTITLE5=Trochu v hlavì mám
TTITLE6=San Francisko Bay Blues
TTITLE7=What Would I Do Without You
TTITLE8=Asi v tom bude nìjakej háèek
TTITLE9=Jako solnej sloup
TTITLE10=Spadla mi pìna
TTITLE11=Zahrada v desti
TTITLE12=Spitál u sv. Jakuba
TTITLE13=Mestacky blues
TTITLE14=Nìkdy se jdu opít
TTITLE15=Nebeská brána
EXTD=
EXTT0=
EXTT1=
EXTT2=
EXTT3=
EXTT4=
EXTT5=
EXTT6=
EXTT7=
EXTT8=
EXTT9=
EXTT10=
EXTT11=
EXTT12=
EXTT13=
EXTT14=
EXTT15=
PLAYORDER=
